<?xml version="1.0" encoding="UTF-8"?>
<svg id="Layer_2" data-name="Layer 2" xmlns="http://www.w3.org/2000/svg" viewBox="0 0 621.97 192.97">
  <defs>
    <style>
      .cls-1 {
        fill: none;
      }

      .cls-2 {
        fill: #143318;
      }
    </style>
  </defs>
  <g id="BGs">
    <rect class="cls-1" width="621.97" height="192.97"/>
  </g>
  <g id="LOGOS">
    <g>
      <path class="cls-2" d="M88.64,66.9c-18.94,0-29.59,13.54-29.59,29.45s10.66,29.59,29.59,29.59,29.45-13.54,29.45-29.59-10.66-29.45-29.45-29.45ZM88.64,115.87c-12.96,0-18.79-9.43-18.79-19.51s5.83-19.37,18.79-19.37,18.65,9.43,18.65,19.37-5.83,19.51-18.65,19.51Z"/>
      <path class="cls-2" d="M133.93,67.62h-10.8v57.61h10.8v-18.94c12.31-.22,16.42-4.25,16.42-15.7v-7.27c0-11.59-4.1-15.7-16.42-15.7ZM139.54,90.59c0,4.18-1.44,4.9-5.62,4.9v-17.07c4.18,0,5.62.72,5.62,4.9v7.27Z"/>
      <path class="cls-2" d="M172.09,90.81c-4.03-3.1-5.9-4.75-5.9-8.93,0-2.74.58-4.18,2.23-4.18s2.52,1.44,2.52,7.06h10.8c0-12.31-4.25-17.86-13.32-17.86s-13.03,5.54-13.03,14.98c0,10.87,5.54,14.33,10.8,18.58,4.75,3.89,5.47,5.62,5.47,9.79,0,3.46-.43,4.9-2.45,4.9s-3.02-1.44-3.02-9.94h-10.8c0,16.63,4.39,20.74,13.83,20.74s13.25-5.54,13.25-15.7c0-10.87-4.32-14.83-10.37-19.44Z"/>
      <path class="cls-2" d="M381.7,67.62h-28.66v57.61h28.66c15.19,0,27.22-5.69,27.22-26.5v-4.61c0-20.95-12.02-26.5-27.22-26.5ZM398.12,98.73c0,14.98-8.64,16.42-16.42,16.42h-17.86v-37.44h17.86c7.78,0,16.42,1.44,16.42,16.42v4.61Z"/>
      <polygon class="cls-2" points="413.96 125.23 434.48 125.23 434.48 114.43 424.76 114.43 424.76 101.83 434.48 101.83 434.48 91.02 424.76 91.02 424.76 78.42 434.48 78.42 434.48 67.62 413.96 67.62 413.96 125.23"/>
      <polygon class="cls-2" points="439.52 78.42 446.93 78.42 446.93 125.23 457.73 125.23 457.73 78.42 465.15 78.42 465.15 67.62 439.52 67.62 439.52 78.42"/>
      <path class="cls-2" d="M499.78,66.9c-18.94,0-29.59,13.54-29.59,29.45s10.66,29.59,29.59,29.59,29.45-13.54,29.45-29.59-10.66-29.45-29.45-29.45ZM499.78,115.87c-12.96,0-18.79-9.43-18.79-19.51s5.83-19.37,18.79-19.37,18.65,9.43,18.65,19.37-5.83,19.51-18.65,19.51Z"/>
      <polygon class="cls-2" points="562.93 67.62 551.41 67.62 547.16 88.5 542.91 67.62 531.39 67.62 539.96 96.42 531.39 125.23 542.91 125.23 547.16 104.35 551.41 125.23 562.93 125.23 554.36 96.42 562.93 67.62"/>
      <path class="cls-2" d="M243.08,77.24c-.24-.02-.48-.02-.74-.02-10.65,0-19.27,8.63-19.27,19.27s8.62,19.27,19.27,19.27h.74c10.3-.4,18.52-8.86,18.52-19.27s-8.22-18.85-18.52-19.25Z"/>
      <path class="cls-2" d="M296.95,59.04h-58.22c-19.67,0-35.58,16.76-35.58,37.44s15.91,37.44,35.58,37.44h58.22c19.65,0,35.58-16.76,35.58-37.44s-15.93-37.44-35.58-37.44ZM244.42,125.24h-2.09c-15.9,0-28.8-12.87-28.8-28.75s12.9-28.78,28.8-28.78h2.09c14.94,1.06,26.77,13.58,26.77,28.78s-11.83,27.7-26.77,28.75ZM293.38,125.24h-25.62c3.07-2.72,5.71-5.93,7.77-9.49h16.55c11.02,0,19.95-8.63,19.95-19.26s-8.93-19.28-19.95-19.28h-16.55c-2.07-3.57-4.71-6.78-7.79-9.5h25.64c15.89,0,28.76,12.88,28.76,28.78s-12.87,28.75-28.76,28.75Z"/>
    </g>
  </g>
</svg>